<?xml version="1.0" standalone="no"?>
<!DOCTYPE svg PUBLIC "-//W3C//DTD SVG 20010904//EN"
 "http://www.w3.org/TR/2001/REC-SVG-20010904/DTD/svg10.dtd">
<svg version="1.0" xmlns="http://www.w3.org/2000/svg"
 width="596.000000pt" height="596.000000pt" viewBox="0 0 596.000000 596.000000"
 preserveAspectRatio="xMidYMid meet">
<metadata>
Created by potrace 1.11, written by Peter Selinger 2001-2013
</metadata>
<g transform="translate(0.000000,596.000000) scale(0.100000,-0.100000)"
fill="#000000" stroke="none">
<path d="M3361 5355 c-132 -168 -280 -298 -406 -357 -59 -27 -84 -33 -161 -36
-98 -5 -155 7 -269 55 -114 48 -329 180 -463 285 -34 27 -67 46 -72 43 -26
-16 -53 -92 -54 -150 0 -84 24 -156 91 -265 70 -117 74 -149 43 -346 -11 -76
-24 -184 -27 -239 -9 -165 30 -313 113 -427 62 -85 55 -183 -24 -300 l-38 -58
-48 108 c-94 211 -219 394 -333 487 -102 84 -261 145 -378 145 -122 0 -278
-62 -358 -142 -120 -120 -178 -366 -117 -503 26 -60 61 -87 119 -93 43 -4 53
-1 75 21 14 15 26 36 27 49 0 13 4 71 8 130 6 93 11 112 37 154 41 66 81 88
163 88 74 -1 188 -36 252 -78 132 -88 280 -410 283 -616 0 -62 -4 -86 -28
-140 -20 -45 -31 -87 -34 -137 l-5 -71 44 -28 c92 -58 1158 -544 1194 -544 18
0 573 277 735 367 69 38 163 93 209 123 l84 54 -6 100 c-10 170 -34 226 -260
601 -83 138 -158 273 -169 302 -10 29 -26 94 -35 145 -23 124 -25 489 -3 633
21 140 19 381 -3 465 -22 82 -71 180 -107 215 l-27 26 -52 -66z"/>
<path d="M3877 3532 c125 -197 176 -331 189 -493 4 -43 9 -79 11 -79 15 0 643
329 636 333 -8 5 -455 169 -784 287 l-107 39 55 -87z"/>
<path d="M1530 3289 c-118 -56 -219 -105 -224 -109 -7 -7 263 -150 364 -192
l35 -15 1 61 c1 44 10 81 32 131 16 39 33 85 37 103 9 43 -3 122 -18 122 -7 0
-109 -46 -227 -101z"/>
<path d="M3920 2814 c-470 -250 -858 -458 -861 -462 -7 -6 740 -723 760 -730
13 -4 1576 871 1578 883 1 9 -599 749 -616 759 -3 2 -391 -200 -861 -450z"/>
<path d="M892 2778 l-343 -362 28 -14 c15 -8 400 -214 855 -458 454 -244 830
-444 835 -444 7 1 675 822 680 838 2 6 -1638 775 -1697 797 -11 4 -121 -106
-358 -357z"/>
<path d="M3024 1890 c3 -223 9 -615 13 -872 3 -258 9 -468 13 -468 6 0 1790
836 1796 842 5 6 17 748 12 748 -3 0 -232 -128 -510 -285 -277 -156 -512 -287
-520 -290 -12 -5 -120 89 -380 331 -200 185 -378 351 -397 368 l-34 31 7 -405z"/>
<path d="M2632 1856 c-188 -234 -347 -426 -352 -426 -6 0 -297 153 -648 340
l-637 340 -3 -307 c-1 -169 1 -310 5 -314 15 -13 1975 -941 1979 -936 2 2 3
392 2 867 l-3 863 -343 -427z"/>
</g>
</svg>
